<?xml version="1.0" standalone="no"?>
<!DOCTYPE svg PUBLIC "-//W3C//DTD SVG 20010904//EN"
 "http://www.w3.org/TR/2001/REC-SVG-20010904/DTD/svg10.dtd">
<svg version="1.0" xmlns="http://www.w3.org/2000/svg"
 width="343.000000pt" height="343.000000pt" viewBox="0 0 343.000000 343.000000"
 preserveAspectRatio="xMidYMid meet">

<g transform="translate(0.000000,343.000000) scale(0.100000,-0.100000)"
fill="#000000" stroke="none">
<path d="M1564 3420 c-676 -65 -1255 -527 -1464 -1168 -64 -197 -74 -273 -74
-532 0 -206 2 -248 22 -337 100 -458 349 -827 730 -1084 189 -127 419 -219
648 -260 167 -30 421 -30 588 0 633 113 1158 583 1339 1199 l16 52 -223 0
-224 0 -22 -60 c-95 -254 -341 -520 -605 -652 -92 -47 -219 -91 -325 -114
-119 -26 -381 -26 -500 0 -259 56 -463 167 -651 355 -188 188 -299 392 -355
651 -26 119 -26 381 0 500 56 259 167 463 355 651 236 236 508 358 836 375
338 18 656 -96 915 -330 l53 -47 -341 -342 c-188 -188 -342 -343 -342 -344 0
-2 334 -2 743 -1 l742 3 3 743 c1 408 1 742 -1 742 -2 0 -113 -110 -247 -245
-135 -135 -248 -245 -251 -245 -4 0 -32 22 -61 49 -232 212 -552 370 -852 421
-136 23 -331 31 -452 20z"/>
</g>
</svg>
