<?xml version="1.0" standalone="no"?>
<!DOCTYPE svg PUBLIC "-//W3C//DTD SVG 20010904//EN"
 "http://www.w3.org/TR/2001/REC-SVG-20010904/DTD/svg10.dtd">
<svg version="1.0" xmlns="http://www.w3.org/2000/svg"
 width="5000.000000pt" height="5000.000000pt" viewBox="0 0 5000.000000 5000.000000"
 preserveAspectRatio="xMidYMid meet">

<g transform="translate(0.000000,5000.000000) scale(0.100000,-0.100000)"
fill="#000000" stroke="none">
<path d="M26050 44225 c-234 -43 -453 -158 -626 -330 -188 -187 -306 -410
-361 -680 -17 -87 -18 -612 -18 -14275 0 -13663 1 -14188 18 -14275 100 -494
436 -864 904 -993 l98 -27 8260 -3 c6093 -2 8281 0 8340 8 231 33 458 147 639
320 192 183 314 403 372 670 19 83 19 461 19 14300 0 13839 0 14217 -19 14300
-54 246 -159 448 -325 622 -188 199 -407 317 -665 363 -80 13 -933 15 -8325
14 -6911 -1 -8248 -3 -8311 -14z m11525 -1060 c55 -27 116 -90 146 -150 35
-72 35 -198 0 -270 -30 -60 -91 -123 -146 -150 -40 -20 -74 -20 -3345 -23
l-3305 -2 -62 30 c-187 92 -228 354 -78 505 21 20 61 48 89 61 l51 24 3305 -3
c3271 -2 3305 -2 3345 -22z m4715 -13700 l0 -12155 -7970 0 -7970 0 0 12155 0
12155 7970 0 7970 0 0 -12155z m-7687 -13021 c237 -45 443 -157 617 -334 594
-606 297 -1584 -549 -1807 -127 -34 -370 -43 -506 -19 -634 109 -1056 698
-930 1296 111 531 621 911 1185 884 58 -3 140 -12 183 -20z"/>
<path d="M19920 42888 c0 -5 36 -199 81 -430 44 -231 79 -421 77 -423 -2 -1
-70 -14 -153 -29 -967 -179 -1923 -465 -2786 -834 -2419 -1035 -4287 -2800
-5473 -5172 -838 -1676 -1342 -3675 -1402 -5557 l-7 -212 394 5 c217 2 444 7
505 10 l111 6 7 186 c57 1565 466 3294 1113 4712 873 1913 2164 3389 3853
4407 263 158 426 247 740 402 761 377 1577 666 2480 879 223 53 677 146 766
158 48 6 52 5 57 -17 3 -13 51 -262 107 -554 56 -291 102 -530 103 -531 4 -2
1888 2126 1893 2139 3 9 -315 123 -1153 411 -637 220 -1193 411 -1235 427 -43
15 -78 23 -78 17z"/>
<path d="M8590 28449 c-133 -15 -263 -54 -395 -119 -135 -67 -207 -117 -314
-222 -170 -166 -289 -379 -345 -613 -9 -38 -558 -3850 -1221 -8469 -1075
-7491 -1205 -8413 -1205 -8522 0 -206 40 -379 129 -562 67 -136 118 -209 221
-316 155 -163 339 -276 535 -330 57 -16 4959 -781 13485 -2103 l13395 -2077
180 0 c163 0 189 3 278 27 227 61 380 150 552 322 173 174 275 350 331 575 20
79 1004 6893 1004 6951 0 19 -37 19 -1782 17 l-1782 -3 -441 -3075 c-243
-1691 -444 -3082 -446 -3091 -3 -13 -1602 232 -11567 1777 -6360 986 -11566
1794 -11568 1797 -5 5 2340 16365 2347 16371 2 3 3253 -499 7224 -1115 3971
-615 7228 -1119 7238 -1119 16 0 17 42 17 740 0 407 -2 740 -5 740 -2 0 -3515
544 -7807 1209 -4292 665 -7841 1211 -7888 1214 -47 3 -123 1 -170 -4z m-404
-6163 c96 -45 168 -143 180 -248 4 -41 -106 -833 -475 -3403 -264 -1842 -488
-3369 -496 -3392 -22 -57 -83 -123 -146 -158 -47 -26 -64 -30 -134 -30 -64 0
-89 5 -123 23 -96 51 -152 127 -173 233 -9 49 34 359 471 3404 264 1843 488
3372 497 3400 21 65 109 155 173 178 70 24 165 21 226 -7z"/>
</g>
</svg>
